<?xml version="1.0" encoding="utf-8"?>
<!-- Generator: Adobe Illustrator 25.4.1, SVG Export Plug-In . SVG Version: 6.00 Build 0)  -->
<svg version="1.1" id="Capa_1" xmlns="http://www.w3.org/2000/svg" xmlns:xlink="http://www.w3.org/1999/xlink" x="0px" y="0px"
	 viewBox="0 0 772 205.5" style="enable-background:new 0 0 772 205.5;" xml:space="preserve">
<style type="text/css">
	.st0{fill:#FFFFFF;}
</style>
<g>
	<path class="st0" d="M36.5,91.9L28.4,108H10.6l48-96l32,64.1h-18l-14-28.2L44.5,76.1L36.5,91.9z M106.6,108H88.7l-7.9-16h17.8
		L106.6,108z"/>
	<path class="st0" d="M147.5,73.6l19.7,34.4h-18.4L121,59.9l14.3,0.1c4.3,0,8-1.6,11.2-4.7c3.2-3.1,4.8-7,4.8-11.4
		c0-4.3-1.6-8-4.8-11.2c-3.1-3.1-6.8-4.7-11.2-4.7h-32l-1.8-1.8L93.1,12h42.1c8.8,0,16.3,3.1,22.6,9.4c6.2,6.4,9.4,13.8,9.4,22.6
		c0,6.7-1.8,12.7-5.6,18.1C157.8,67.4,153.1,71.3,147.5,73.6z"/>
	<path class="st0" d="M235.5,12v16.1h-31.9V108h-16.1V28.1V12H235.5z"/>
	<path class="st0" d="M314.9,12v16.1h-48L251,12H314.9z M266.9,52.1h48v16h-48h-16v-16H266.9z M266.9,91.9h48V108h-64v-1.3
		L266.9,91.9z"/>
	<path class="st0" d="M330.1,12l48.1,48l48-48v96h-15.8V50.6l-32.2,32l-48.1-48.4V12z"/>
	<path class="st0" d="M492.1,73.1L492.1,73.1L464.9,108h-20.5L482,60l-37.7-48h20.5L492,47l27.4-35h20.3l-37.4,48L492.1,73.1z
		 M492.1,73.1L464.8,108L492,73v0.1H492.1z"/>
	<path class="st0" d="M554.5,28.1V12h95.4l-32.8,16.1H554.5z M650.6,91.9V108h-96.1l32.9-16.1H650.6z"/>
	<path class="st0" d="M691.4,91.9l-8.2,16.1h-17.8l48-96l32,64.1h-18l-14-28.2l-14.2,28.2L691.4,91.9z M761.5,108h-17.9l-7.9-16
		h17.8L761.5,108z"/>
</g>
<g>
	<path class="st0" d="M128.7,178.1c-1.1-0.4-2.1-1-3.1-1.7c-0.9-0.7-1.7-1.6-2.3-2.6c-0.6-1-0.9-2-0.9-3.1v-13.2
		c0-1.1,0.3-2.2,0.9-3.1c0.6-1,1.4-1.8,2.3-2.6c0.9-0.7,1.9-1.3,3.1-1.7c1.1-0.4,2.2-0.6,3.1-0.6h8.2v5.2h-6.8
		c-0.9,0-1.7,0.2-2.4,0.5s-1.3,0.7-1.7,1.1c-0.5,0.5-0.8,0.9-1.1,1.4c-0.2,0.5-0.4,0.9-0.4,1.3v10.3c0,0.4,0.1,0.8,0.4,1.3
		c0.2,0.5,0.6,1,1.1,1.4c0.5,0.5,1,0.8,1.7,1.1s1.5,0.5,2.4,0.5h4.5c0.9,0,1.7-0.2,2.4-0.5s1.3-0.7,1.8-1.1c0.5-0.4,0.8-0.9,1.1-1.4
		c0.2-0.5,0.4-0.9,0.4-1.3v-28.5h5.2v29.9c0,1.1-0.3,2.2-0.9,3.1c-0.6,1-1.4,1.8-2.3,2.6c-0.9,0.7-1.9,1.3-3.1,1.7
		c-1.1,0.4-2.2,0.6-3.2,0.6h-7.2C130.8,178.7,129.8,178.5,128.7,178.1z"/>
	<path class="st0" d="M239.3,168.8h-2.9v-5.2h1.6c0.9,0,1.7-0.1,2.4-0.4c0.7-0.3,1.3-0.6,1.7-1.1c0.5-0.4,0.8-0.9,1.1-1.4
		s0.4-0.9,0.4-1.3v-0.5c0-0.4-0.1-0.9-0.4-1.4c-0.2-0.5-0.6-1-1.1-1.4s-1.1-0.8-1.8-1.1s-1.5-0.4-2.4-0.4h-4.5
		c-0.9,0-1.7,0.2-2.4,0.5s-1.3,0.7-1.7,1.1c-0.5,0.5-0.8,0.9-1.1,1.4c-0.2,0.5-0.4,0.9-0.4,1.3v10.3c0,0.4,0.1,0.8,0.4,1.3
		c0.2,0.5,0.6,1,1.1,1.4c0.5,0.5,1,0.8,1.7,1.1s1.5,0.5,2.4,0.5h15.2v5.2H232c-1,0-2-0.2-3.1-0.6c-1.1-0.4-2.1-1-3.1-1.7
		c-0.9-0.7-1.7-1.6-2.3-2.6s-0.9-2-0.9-3.1v-13.2c0-1.1,0.3-2.2,0.9-3.1c0.6-1,1.4-1.8,2.3-2.6c0.9-0.7,1.9-1.3,3.1-1.7
		c1.1-0.4,2.2-0.6,3.1-0.6h7.2c1,0,2.1,0.2,3.2,0.6c1.1,0.4,2.1,1,3.1,1.7c0.9,0.7,1.7,1.6,2.3,2.6s0.9,2,0.9,3.1v3.3
		c0,1.1-0.3,2.2-0.9,3.1c-0.6,1-1.4,1.8-2.3,2.6c-0.9,0.7-1.9,1.3-3.1,1.7C241.3,168.6,240.3,168.8,239.3,168.8z"/>
	<path class="st0" d="M332.3,166.5c-1.3,0-2.5-0.2-3.6-0.5c-1.1-0.4-2.1-0.9-3-1.5s-1.5-1.4-2.1-2.2c-0.5-0.9-0.8-1.8-0.8-2.8v-2.4
		c0-1,0.2-2,0.7-2.9s1.1-1.8,2-2.5c0.8-0.7,1.8-1.3,2.9-1.7s2.3-0.6,3.5-0.6h16.3v5.2h-14.7c-0.9,0-1.6,0.1-2.3,0.4
		c-0.6,0.3-1.2,0.6-1.6,0.9c-0.5,0.4-0.8,0.8-1,1.2c-0.2,0.5-0.3,0.9-0.3,1.3c0.1,0.6,0.5,1.3,1.4,1.9c0.9,0.6,2.2,1,4,1h5.2
		c1.3,0,2.5,0.2,3.6,0.5c1.1,0.4,2.1,0.9,3,1.5c0.8,0.6,1.5,1.4,2,2.3c0.5,0.9,0.8,1.8,0.8,2.8v2.6c0,1-0.3,2-0.8,2.9
		s-1.2,1.7-2.1,2.4s-1.9,1.3-3,1.7s-2.3,0.6-3.6,0.6h-15.9v-5.2h14.7c0.9,0,1.7-0.1,2.3-0.4c0.7-0.3,1.2-0.6,1.6-1s0.7-0.8,0.9-1.2
		c0.2-0.4,0.3-0.8,0.3-1.2c0-0.7-0.5-1.4-1.4-2.1c-0.9-0.7-2.3-1-4-1H332.3z"/>
	<path class="st0" d="M423.1,141.4c0.6-0.6,1.2-0.9,2-0.9s1.4,0.3,1.9,0.9c0.5,0.6,0.8,1.2,0.8,1.9s-0.3,1.4-0.8,1.9
		c-0.5,0.6-1.2,0.9-1.9,0.9c-0.8,0-1.4-0.3-2-0.9c-0.6-0.6-0.8-1.2-0.8-1.9C422.3,142.6,422.5,141.9,423.1,141.4z M427.7,178.7h-5.2
		v-29.3h5.2V178.7z"/>
	<path class="st0" d="M518.8,149.3c1,0,2,0.2,3.1,0.6c1.1,0.4,2.1,1,3.1,1.7c0.9,0.7,1.7,1.6,2.3,2.6s0.9,2,0.9,3.1v21.3H523v-19.9
		c0-0.4-0.1-0.8-0.4-1.3c-0.2-0.5-0.6-1-1.1-1.4s-1.1-0.8-1.8-1.1s-1.5-0.5-2.4-0.5h-4.5c-0.9,0-1.7,0.2-2.4,0.5
		c-0.7,0.3-1.3,0.7-1.7,1.1c-0.5,0.5-0.8,0.9-1.1,1.4c-0.2,0.5-0.4,0.9-0.4,1.3v19.9H502v-21.3c0-1.1,0.3-2.2,0.9-3.1
		c0.6-1,1.4-1.8,2.3-2.6c0.9-0.7,1.9-1.3,3-1.7s2.2-0.6,3.2-0.6H518.8z"/>
	<path class="st0" d="M623.3,178.1v-19.2c0-0.4-0.1-0.8-0.4-1.3c-0.2-0.5-0.6-1-1.1-1.4s-1.1-0.8-1.8-1.1s-1.5-0.5-2.4-0.5h-4.5
		c-0.9,0-1.7,0.2-2.4,0.5s-1.3,0.7-1.7,1.1c-0.5,0.5-0.8,0.9-1.1,1.4c-0.2,0.5-0.4,0.9-0.4,1.3v10.3c0,0.4,0.1,0.8,0.4,1.3
		c0.2,0.5,0.6,1,1.1,1.4c0.5,0.5,1,0.8,1.7,1.1s1.5,0.5,2.4,0.5h6.8v5.2h-8.2c-1,0-2-0.2-3.1-0.6c-1.1-0.4-2.1-1-3-1.7
		s-1.7-1.6-2.3-2.6s-0.9-2-0.9-3.1v-13.2c0-1.1,0.3-2.2,0.9-3.1c0.6-1,1.4-1.8,2.3-2.6c0.9-0.7,1.9-1.3,3-1.7s2.2-0.6,3.1-0.6h7.2
		c1,0,2.1,0.2,3.2,0.6c1.1,0.4,2.1,1,3.1,1.7c0.9,0.7,1.7,1.6,2.3,2.6s0.9,2,0.9,3.1v22.1c0,1.1-0.3,2.2-0.9,3.1
		c-0.6,1-1.3,1.8-2.3,2.6c-0.9,0.7-1.9,1.3-3.1,1.7c-1.1,0.4-2.2,0.6-3.2,0.6h-16.6v-5.2h15.2c0.9,0,1.7-0.2,2.4-0.5
		s1.3-0.7,1.8-1.1c0.5-0.5,0.8-0.9,1.1-1.4S623.3,178.5,623.3,178.1z"/>
</g>
</svg>
